<svg width="41" height="44" viewBox="0 0 41 44" fill="none" xmlns="http://www.w3.org/2000/svg">
<g filter="url(#filter0_d_206_262)">
<path d="M31.2917 16.9583H9.70833C8.00546 16.9583 6.625 18.3388 6.625 20.0417V30.8333C6.625 32.5362 8.00546 33.9167 9.70833 33.9167H31.2917C32.9945 33.9167 34.375 32.5362 34.375 30.8333V20.0417C34.375 18.3388 32.9945 16.9583 31.2917 16.9583Z" stroke="#0075FF" stroke-width="4" stroke-linecap="round" stroke-linejoin="round"/>
<path d="M12.7915 16.9583V10.7917C12.7896 8.88007 13.498 7.03595 14.7793 5.61731C16.0606 4.19867 17.8232 3.30672 19.7252 3.1146C21.6271 2.92249 23.5325 3.44393 25.0716 4.57768C26.6107 5.71144 27.6736 7.37663 28.054 9.24999V16.9583" stroke="#0075FF" stroke-width="4" stroke-linecap="round" stroke-linejoin="round"/>
</g>
<defs>
<filter id="filter0_d_206_262" x="-2" y="0" width="45" height="45" filterUnits="userSpaceOnUse" color-interpolation-filters="sRGB">
<feFlood flood-opacity="0" result="BackgroundImageFix"/>
<feColorMatrix in="SourceAlpha" type="matrix" values="0 0 0 0 0 0 0 0 0 0 0 0 0 0 0 0 0 0 127 0" result="hardAlpha"/>
<feOffset dy="4"/>
<feGaussianBlur stdDeviation="2"/>
<feComposite in2="hardAlpha" operator="out"/>
<feColorMatrix type="matrix" values="0 0 0 0 0 0 0 0 0 0 0 0 0 0 0 0 0 0 0.25 0"/>
<feBlend mode="normal" in2="BackgroundImageFix" result="effect1_dropShadow_206_262"/>
<feBlend mode="normal" in="SourceGraphic" in2="effect1_dropShadow_206_262" result="shape"/>
</filter>
</defs>
</svg>
